<svg width="86" height="70" viewBox="0 0 86 70" fill="none" xmlns="http://www.w3.org/2000/svg">
<g id="viindocart icon 2">
<g id="Layer 2">
<g id="Layer 4">
<g id="viindocart icon">
<path id="Vector" d="M60.8946 0C62.8827 0 64.1061 2.17392 63.0745 3.87337L62.3887 5.00276C61.1193 7.09305 58.8511 8.36933 56.4055 8.36933H40.1031C38.1681 8.36933 36.9771 10.485 37.9808 12.1394L40.775 16.7399L41.3415 17.6733C42.0969 18.9177 43.9028 18.9177 44.6582 17.6733C45.0099 17.0938 45.6386 16.7399 46.3165 16.7399H50.9749C52.8562 16.7399 54.014 18.7971 53.0378 20.4053L50.1812 25.1093L48.0188 28.6713L45.0971 33.4811C44.1418 35.0554 41.857 35.0552 40.9013 33.4811L37.9808 28.6713L35.8198 25.1093L32.9631 20.4053L30.7383 16.7399L27.9428 12.1368L25.6554 8.36933L22.9251 3.87082C21.8941 2.17253 23.1167 0 25.1035 0H60.8946Z" fill="#E2BB9A"/>
<path id="Vector_2" d="M80.9688 0C82.9569 0 84.1804 2.17392 83.1488 3.87337L80.4185 8.36933L78.1285 12.1394L75.3356 16.7399L73.1107 20.4028L70.2541 25.1093L68.0931 28.6701L65.1726 33.4811L63.0741 36.9373L60.091 41.8505L58.055 45.2033L55.0069 50.2211L53.036 53.4668L49.9267 58.5904L48.0183 61.734L44.8439 66.961C44.0035 68.3449 41.9951 68.3449 41.1548 66.961L37.9803 61.734L36.0733 58.5904L32.9626 53.4668L30.9918 50.2211L27.9449 45.2033L25.9076 41.8505L22.9246 36.9373L20.8287 33.4811L17.9069 28.6701L15.7446 25.1093L12.8879 20.4028L10.6631 16.7399L7.86893 12.1368L5.58153 8.36933L2.85123 3.87082C1.8198 2.17278 3.04221 0 5.02896 0H8.12464C9.62311 0 11.013 0.781939 11.7909 2.06265L12.8892 3.87082L15.6195 8.36933L17.9069 12.1368L20.7011 16.7399L22.9246 20.4028L25.7826 25.1093L27.9449 28.6713L30.8654 33.4811L32.9626 36.9373L35.9456 41.8505L37.9803 45.202L41.0285 50.2211C41.9265 51.7 44.073 51.6997 44.9715 50.2211L48.0183 45.202L50.053 41.8505L53.036 36.9373L55.1346 33.4811L58.055 28.6713L60.2161 25.1093L63.0741 20.4028L65.2976 16.7399L68.0931 12.1368L70.3805 8.36933L73.1107 3.87337L74.209 2.06409C74.987 0.78254 76.3774 0 77.8766 0H80.9688Z" fill="#E2BB9A"/>
</g>
</g>
</g>
</g>
</svg>
