<svg width="20" height="24" viewBox="0 0 20 24" fill="none" xmlns="http://www.w3.org/2000/svg">
<g id="&#240;&#159;&#166;&#134; icon &#34;apple&#34;">
<path id="Vector" d="M5.08795 23.5373C4.61541 23.2222 4.19578 22.8343 3.84467 22.3879C3.4619 21.9252 3.1071 21.4385 2.78129 20.9348C2.01617 19.8156 1.41698 18.5916 1.00233 17.3009C0.502624 15.7998 0.259766 14.3626 0.259766 12.9564C0.259766 11.3874 0.599568 10.0182 1.26118 8.86883C1.75453 7.96831 2.47899 7.21556 3.35996 6.6881C4.21359 6.15862 5.19399 5.86864 6.1983 5.84859C6.5481 5.84859 6.92788 5.89856 7.32764 5.9985C7.61747 6.07845 7.96727 6.20838 8.39702 6.36828C8.9467 6.57816 9.24652 6.70809 9.34647 6.73807C9.66628 6.858 9.93612 6.90797 10.146 6.90797C10.3059 6.90797 10.5358 6.858 10.7906 6.77805C10.9355 6.72808 11.2104 6.63813 11.6002 6.46823C11.9859 6.32831 12.2917 6.20838 12.5346 6.11843C12.9044 6.00849 13.2622 5.90855 13.584 5.85858C13.9738 5.79862 14.3605 5.77863 14.7313 5.80861C15.4409 5.85858 16.0905 6.00849 16.6702 6.22837C17.6896 6.63813 18.5121 7.27775 19.1258 8.18722C18.8659 8.34713 18.6261 8.53302 18.4012 8.7369C17.9145 9.16665 17.5017 9.67636 17.1719 10.241C16.7433 11.0108 16.5215 11.8785 16.5283 12.7596C16.5433 13.8419 16.8181 14.7934 17.3678 15.6179C17.7681 16.2293 18.29 16.7519 18.9009 17.153C19.2107 17.3629 19.4826 17.5078 19.7404 17.6027C19.6205 17.9775 19.4885 18.3423 19.3356 18.7021C18.9888 19.5086 18.5761 20.2812 18.0864 21.0107C17.6546 21.6404 17.3148 22.1101 17.057 22.4199C16.6552 22.8996 16.2674 23.2594 15.8777 23.5163C15.4479 23.8011 14.9432 23.952 14.4265 23.952C14.0767 23.967 13.7269 23.922 13.3931 23.8251C13.1033 23.7302 12.8174 23.6232 12.5376 23.5023C12.2444 23.3681 11.9422 23.2546 11.6331 23.1625C11.2534 23.0632 10.8623 23.0138 10.4698 23.0156C10.07 23.0156 9.68027 23.0655 9.31049 23.1605C9.00067 23.2484 8.70084 23.3564 8.40401 23.4853C7.98426 23.6602 7.70942 23.7751 7.54951 23.8251C7.22733 23.9204 6.89543 23.9791 6.56009 24C6.04039 24 5.55668 23.8501 5.07496 23.5503L5.08795 23.5373ZM11.938 5.08803C11.2584 5.42783 10.6127 5.57175 9.9661 5.52378C9.86616 4.87815 9.9661 4.21454 10.2359 3.48797C10.4758 2.86833 10.7956 2.30865 11.2354 1.80894C11.6951 1.28925 12.2448 0.859499 12.8644 0.549679C13.524 0.209878 14.1537 0.0299825 14.7533 0C14.8333 0.679604 14.7533 1.34921 14.5035 2.06879C14.2734 2.708 13.9354 3.30297 13.504 3.82777C13.0693 4.34746 12.5296 4.77721 11.919 5.08703L11.938 5.08803Z" fill="#050505"/>
</g>
</svg>
