<svg width="16" height="17" viewBox="0 0 16 17" fill="none" xmlns="http://www.w3.org/2000/svg">
<g id="Icon/Outline/bell">
<path id="Icon" d="M9.99996 11.8333H13.3333L12.3967 10.8967C12.1427 10.6427 12 10.2982 12 9.93897V7.83334C12 6.09171 10.8869 4.61006 9.33329 4.06094V3.83333C9.33329 3.09695 8.73634 2.5 7.99996 2.5C7.26358 2.5 6.66663 3.09695 6.66663 3.83333V4.06094C5.11304 4.61006 3.99996 6.09171 3.99996 7.83334V9.93897C3.99996 10.2982 3.85726 10.6427 3.60325 10.8967L2.66663 11.8333H5.99996M9.99996 11.8333V12.5C9.99996 13.6046 9.10453 14.5 7.99996 14.5C6.89539 14.5 5.99996 13.6046 5.99996 12.5V11.8333M9.99996 11.8333H5.99996" stroke="#24130E" stroke-linecap="round" stroke-linejoin="round"/>
</g>
</svg>
