<svg width="24" height="25" viewBox="0 0 24 25" fill="none" xmlns="http://www.w3.org/2000/svg">
<g id="Icon/Solid/cash">
<g id="Icon">
<path d="M4.80002 5.30078C3.47454 5.30078 2.40002 6.3753 2.40002 7.70078V12.5008C2.40002 13.8263 3.47454 14.9008 4.80002 14.9008L4.80002 7.70078H16.8C16.8 6.3753 15.7255 5.30078 14.4 5.30078H4.80002Z" fill="#111827" fill-opacity="0.2"/>
<path fill-rule="evenodd" clip-rule="evenodd" d="M7.20002 12.5008C7.20002 11.1753 8.27454 10.1008 9.60002 10.1008H19.2C20.5255 10.1008 21.6 11.1753 21.6 12.5008V17.3008C21.6 18.6263 20.5255 19.7008 19.2 19.7008H9.60002C8.27454 19.7008 7.20002 18.6263 7.20002 17.3008V12.5008ZM14.4 17.3008C15.7255 17.3008 16.8 16.2263 16.8 14.9008C16.8 13.5753 15.7255 12.5008 14.4 12.5008C13.0745 12.5008 12 13.5753 12 14.9008C12 16.2263 13.0745 17.3008 14.4 17.3008Z" fill="#111827" fill-opacity="0.2"/>
</g>
</g>
</svg>
