<svg width="25" height="25" viewBox="0 0 25 25" fill="none" xmlns="http://www.w3.org/2000/svg">
<g id="Google_icon-icons.com_66793 1" clip-path="url(#clip0_3677_4805)">
<g id="_x31__stroke">
<g id="Google">
<path id="Vector" fill-rule="evenodd" clip-rule="evenodd" d="M5.81462 12.4996C5.81462 11.7202 5.9413 10.9728 6.16767 10.2719L2.20755 7.18359C1.43573 8.78391 1.00098 10.5873 1.00098 12.4996C1.00098 14.4104 1.43536 16.2125 2.2059 17.8118L6.16382 14.7175C5.93965 14.0198 5.81462 13.2753 5.81462 12.4996Z" fill="#FBBC05"/>
<path id="Vector_2" fill-rule="evenodd" clip-rule="evenodd" d="M12.7672 5.40912C14.4252 5.40912 15.9228 6.00912 17.0994 6.99088L20.5223 3.5C18.4365 1.64544 15.7623 0.5 12.7672 0.5C8.1171 0.5 4.12063 3.21575 2.20703 7.184L6.16697 10.2723C7.07943 7.44369 9.6804 5.40912 12.7672 5.40912Z" fill="#EA4335"/>
<path id="Vector_3" fill-rule="evenodd" clip-rule="evenodd" d="M12.7672 19.5917C9.68058 19.5917 7.07961 17.5571 6.16715 14.7285L2.20703 17.8163C4.12063 21.7851 8.1171 24.5008 12.7672 24.5008C15.6371 24.5008 18.3772 23.46 20.4337 21.51L16.6748 18.5423C15.6141 19.2246 14.2785 19.5917 12.7672 19.5917Z" fill="#34A853"/>
<path id="Vector_4" fill-rule="evenodd" clip-rule="evenodd" d="M23.9993 12.5001C23.9993 11.791 23.8923 11.0273 23.7318 10.3184H12.7676V14.9547H19.0788C18.7632 16.5355 17.9043 17.7507 16.6752 18.5415L20.4341 21.5093C22.5942 19.4618 23.9993 16.4115 23.9993 12.5001Z" fill="#4285F4"/>
</g>
</g>
</g>
<defs>
<clipPath id="clip0_3677_4805">
<rect width="23.5" height="24" fill="white" transform="translate(0.75 0.5)"/>
</clipPath>
</defs>
</svg>
