<svg width="10" height="11" viewBox="0 0 10 11" fill="none" xmlns="http://www.w3.org/2000/svg">
<path id="path1826" d="M5.00244 0.166016C3.62752 0.166016 2.49927 1.35282 2.49927 2.80413C2.49927 4.25544 3.62752 5.44637 5.00244 5.44637C6.37737 5.44637 7.50073 4.25544 7.50073 2.80413C7.50073 1.35282 6.37737 0.166016 5.00244 0.166016ZM3.00127 5.97214C1.50015 5.97214 0 7.02779 0 8.60922V9.56695C0 9.7104 0.00514737 9.85529 0.0442962 9.9933C0.188751 10.5025 0.557125 10.7225 1.00107 10.7216H8.9999C9.34215 10.7223 9.60496 10.5165 9.7908 10.227C9.96703 9.95254 10 9.61603 10 9.28984V8.60922C10.001 6.49996 8.50083 5.97214 6.99873 5.97214H3.00127Z" fill="#CFCFCF"/>
</svg>
