<svg width="11" height="10" viewBox="0 0 11 10" fill="none" xmlns="http://www.w3.org/2000/svg">
<g id="Group 77">
<path id="Vector" d="M2.30664 8.9991V1.41971C2.3066 1.25863 2.35627 1.10209 2.44786 0.974688C2.53945 0.847283 2.66777 0.756224 2.81267 0.715815C2.95757 0.675406 3.11083 0.687935 3.24839 0.751434C3.38596 0.814932 3.50002 0.925804 3.57268 1.06664L7.47373 8.62387C7.54639 8.7647 7.66046 8.87557 7.79802 8.93907C7.93558 9.00257 8.08885 9.0151 8.23374 8.97469C8.37864 8.93428 8.50696 8.84322 8.59855 8.71582C8.69014 8.58841 8.73982 8.43187 8.73977 8.27079V0.691406" stroke="#48261C" stroke-linecap="round" stroke-linejoin="round"/>
<path id="Vector_2" d="M1.02148 3.46094H10.0279" stroke="#48261C" stroke-linecap="round" stroke-linejoin="round"/>
<path id="Vector_3" d="M1.02148 5.42188H10.0279" stroke="#48261C" stroke-linecap="round" stroke-linejoin="round"/>
</g>
</svg>
