<svg width="25" height="24" viewBox="0 0 25 24" fill="none" xmlns="http://www.w3.org/2000/svg">
<g id="Icon/Outline/user-circle">
<path id="Icon" d="M5.32123 17.8037C7.35286 16.6554 9.69999 16 12.2002 16C14.7004 16 17.0475 16.6554 19.0792 17.8037M15.2002 10C15.2002 11.6569 13.857 13 12.2002 13C10.5433 13 9.2002 11.6569 9.2002 10C9.2002 8.34315 10.5433 7 12.2002 7C13.857 7 15.2002 8.34315 15.2002 10ZM21.2002 12C21.2002 16.9706 17.1708 21 12.2002 21C7.22963 21 3.2002 16.9706 3.2002 12C3.2002 7.02944 7.22963 3 12.2002 3C17.1708 3 21.2002 7.02944 21.2002 12Z" stroke="white" stroke-linecap="round" stroke-linejoin="round"/>
</g>
</svg>
