<svg width="25" height="24" viewBox="0 0 25 24" fill="none" xmlns="http://www.w3.org/2000/svg">
<g id="Icon/Outline/user-circle">
<path id="Icon" d="M5.32099 17.8037C7.35262 16.6554 9.69975 16 12.2 16C14.7002 16 17.0473 16.6554 19.0789 17.8037M15.2 10C15.2 11.6569 13.8568 13 12.2 13C10.5431 13 9.19995 11.6569 9.19995 10C9.19995 8.34315 10.5431 7 12.2 7C13.8568 7 15.2 8.34315 15.2 10ZM21.2 12C21.2 16.9706 17.1705 21 12.2 21C7.22939 21 3.19995 16.9706 3.19995 12C3.19995 7.02944 7.22939 3 12.2 3C17.1705 3 21.2 7.02944 21.2 12Z" stroke="#E5A36A" stroke-linecap="round" stroke-linejoin="round"/>
</g>
</svg>
