<svg width="32" height="32" viewBox="0 0 32 32" fill="none" xmlns="http://www.w3.org/2000/svg">
<g id="Icon/Solid/shopping-bag">
<path id="Icon" fill-rule="evenodd" clip-rule="evenodd" d="M16 3.19922C12.4654 3.19922 9.60005 6.0646 9.60005 9.59922V11.1992H8.00006C7.18478 11.1992 6.49988 11.8122 6.40984 12.6225L4.80984 27.0225C4.75958 27.4749 4.90433 27.9272 5.20785 28.2663C5.51137 28.6054 5.94495 28.7992 6.40006 28.7992H25.6001C26.0552 28.7992 26.4887 28.6054 26.7923 28.2663C27.0958 27.9272 27.2405 27.4749 27.1903 27.0225L25.5903 12.6225C25.5002 11.8122 24.8153 11.1992 24.0001 11.1992H22.4V9.59922C22.4 6.0646 19.5347 3.19922 16 3.19922ZM19.2 11.1992V9.59922C19.2 7.83191 17.7674 6.39922 16 6.39922C14.2327 6.39922 12.8 7.83191 12.8 9.59922V11.1992H19.2ZM9.60005 15.9992C9.60005 15.1156 10.3164 14.3992 11.2 14.3992C12.0837 14.3992 12.8 15.1156 12.8 15.9992C12.8 16.8829 12.0837 17.5992 11.2 17.5992C10.3164 17.5992 9.60005 16.8829 9.60005 15.9992ZM20.8 14.3992C19.9164 14.3992 19.2 15.1156 19.2 15.9992C19.2 16.8829 19.9164 17.5992 20.8 17.5992C21.6837 17.5992 22.4 16.8829 22.4 15.9992C22.4 15.1156 21.6837 14.3992 20.8 14.3992Z" fill="url(#paint0_linear_3677_5822)"/>
</g>
<defs>
<linearGradient id="paint0_linear_3677_5822" x1="4.80005" y1="22.3992" x2="31.1347" y2="22.3586" gradientUnits="userSpaceOnUse">
<stop stop-color="#E6A36A"/>
<stop offset="1" stop-color="#E2BB9A"/>
</linearGradient>
</defs>
</svg>
