<svg width="32" height="32" viewBox="0 0 32 32" fill="none" xmlns="http://www.w3.org/2000/svg">
<g id="Icon/Solid/status-online">
<path id="Icon" fill-rule="evenodd" clip-rule="evenodd" d="M8.0805 5.81824C8.70534 6.44308 8.70534 7.45614 8.0805 8.08098C3.70663 12.4549 3.70663 19.5463 8.0805 23.9202C8.70534 24.545 8.70534 25.5581 8.0805 26.1829C7.45566 26.8078 6.4426 26.8078 5.81776 26.1829C0.19421 20.5594 0.19421 11.4418 5.81776 5.81824C6.4426 5.1934 7.45566 5.1934 8.0805 5.81824ZM23.9197 5.81861C24.5446 5.19377 25.5576 5.19377 26.1825 5.81861C31.806 11.4422 31.806 20.5597 26.1825 26.1833C25.5576 26.8081 24.5446 26.8081 23.9197 26.1833C23.2949 25.5584 23.2949 24.5454 23.9197 23.9205C28.2936 19.5467 28.2936 12.4552 23.9197 8.08135C23.2949 7.45651 23.2949 6.44345 23.9197 5.81861ZM12.606 10.3437C13.2308 10.9686 13.2308 11.9816 12.606 12.6065C10.7315 14.481 10.7315 17.5202 12.606 19.3947C13.2308 20.0195 13.2308 21.0326 12.606 21.6574C11.9812 22.2823 10.9681 22.2823 10.3433 21.6574C7.21906 18.5332 7.21906 13.4679 10.3433 10.3437C10.9681 9.71888 11.9812 9.71888 12.606 10.3437ZM19.3942 10.3441C20.0191 9.71925 21.0321 9.71925 21.657 10.3441C24.7812 13.4683 24.7812 18.5336 21.657 21.6578C21.0321 22.2826 20.0191 22.2826 19.3942 21.6578C18.7694 21.033 18.7694 20.0199 19.3942 19.3951C21.2687 17.5205 21.2687 14.4814 19.3942 12.6068C18.7694 11.982 18.7694 10.9689 19.3942 10.3441ZM16.0001 14.4009C16.8838 14.4009 17.6001 15.1173 17.6001 16.0009V16.0169C17.6001 16.9006 16.8838 17.6169 16.0001 17.6169C15.1164 17.6169 14.4001 16.9006 14.4001 16.0169V16.0009C14.4001 15.1173 15.1164 14.4009 16.0001 14.4009Z" fill="#DADADA"/>
</g>
</svg>
