<svg width="21" height="20" viewBox="0 0 21 20" fill="none" xmlns="http://www.w3.org/2000/svg">
<path fill-rule="evenodd" clip-rule="evenodd" d="M4 5C2.89543 5 2 5.89543 2 7V15C2 16.1046 2.89543 17 4 17H16C17.1046 17 18 16.1046 18 15V7C18 5.89543 17.1046 5 16 5H14.4142C14.149 5 13.8946 4.89464 13.7071 4.70711L12.5858 3.58579C12.2107 3.21071 11.702 3 11.1716 3H8.82843C8.29799 3 7.78929 3.21071 7.41421 3.58579L6.29289 4.70711C6.10536 4.89464 5.851 5 5.58579 5H4ZM10 14C11.6569 14 13 12.6569 13 11C13 9.34315 11.6569 8 10 8C8.34315 8 7 9.34315 7 11C7 12.6569 8.34315 14 10 14Z" fill="#E6A36A"/>
<g clip-path="url(#clip0_3677_8391)">
<path fill-rule="evenodd" clip-rule="evenodd" d="M18.5 1.75C18.6381 1.75 18.75 1.86193 18.75 2V3.25H20C20.1381 3.25 20.25 3.36193 20.25 3.5C20.25 3.63807 20.1381 3.75 20 3.75H18.75V5C18.75 5.13807 18.6381 5.25 18.5 5.25C18.3619 5.25 18.25 5.13807 18.25 5V3.75H17C16.8619 3.75 16.75 3.63807 16.75 3.5C16.75 3.36193 16.8619 3.25 17 3.25L18.25 3.25V2C18.25 1.86193 18.3619 1.75 18.5 1.75Z" fill="#E6A36A"/>
</g>
<defs>
<clipPath id="clip0_3677_8391">
<rect width="5" height="5" fill="white" transform="translate(16 1)"/>
</clipPath>
</defs>
</svg>
