<svg width="24" height="25" viewBox="0 0 24 25" fill="none" xmlns="http://www.w3.org/2000/svg">
<g id="Icon/Solid/user-add">
<g id="Icon">
<path d="M9.60002 11.2996C11.5883 11.2996 13.2 9.68783 13.2 7.69961C13.2 5.71138 11.5883 4.09961 9.60002 4.09961C7.6118 4.09961 6.00002 5.71138 6.00002 7.69961C6.00002 9.68783 7.6118 11.2996 9.60002 11.2996Z" fill="#111827" fill-opacity="0.1"/>
<path d="M9.60002 13.6996C13.5765 13.6996 16.8 16.9232 16.8 20.8996H2.40002C2.40002 16.9232 5.62357 13.6996 9.60002 13.6996Z" fill="#111827" fill-opacity="0.1"/>
<path d="M19.2 8.89961C19.2 8.23687 18.6628 7.69961 18 7.69961C17.3373 7.69961 16.8 8.23687 16.8 8.89961V10.0996H15.6C14.9373 10.0996 14.4 10.6369 14.4 11.2996C14.4 11.9623 14.9373 12.4996 15.6 12.4996H16.8V13.6996C16.8 14.3623 17.3373 14.8996 18 14.8996C18.6628 14.8996 19.2 14.3623 19.2 13.6996V12.4996H20.4C21.0628 12.4996 21.6 11.9624 21.6 11.2996C21.6 10.6369 21.0628 10.0996 20.4 10.0996H19.2V8.89961Z" fill="#111827" fill-opacity="0.1"/>
</g>
</g>
</svg>
