<svg width="24" height="23" viewBox="0 0 24 23" fill="none" xmlns="http://www.w3.org/2000/svg">
<g id="Call">
<path id="Rectangle 77" d="M20.1364 18.2083V16.631C20.1364 15.8472 19.659 15.1425 18.9309 14.8514L16.9804 14.0716C16.0544 13.7014 14.999 14.1025 14.5529 14.9941L14.3832 15.3333C14.3832 15.3333 11.986 14.8542 10.0682 12.9375C8.15046 11.0208 7.67102 8.625 7.67102 8.625L8.01048 8.45537C8.90259 8.00957 9.30386 6.95476 8.93343 6.02922L8.15323 4.07984C7.862 3.35216 7.15682 2.875 6.37264 2.875H4.79439C3.73524 2.875 2.87663 3.73312 2.87663 4.79167C2.87663 13.26 9.7455 20.125 18.2187 20.125C19.2778 20.125 20.1364 19.2669 20.1364 18.2083Z" stroke="#000E08" stroke-linejoin="round"/>
</g>
</svg>
